<?xml version="1.0" standalone="no"?>
<!DOCTYPE svg PUBLIC "-//W3C//DTD SVG 20010904//EN"
 "http://www.w3.org/TR/2001/REC-SVG-20010904/DTD/svg10.dtd">
<svg version="1.0" xmlns="http://www.w3.org/2000/svg"
 width="750.000000pt" height="634.000000pt" viewBox="0 0 750.000000 634.000000"
 preserveAspectRatio="xMidYMid meet">

<g transform="translate(0.000000,634.000000) scale(0.100000,-0.100000)"
fill="#000000" stroke="none">
<path d="M2565 3635 c-297 -224 -310 -235 -310 -267 0 -32 9 -39 315 -250 173
-120 325 -218 337 -218 43 0 53 24 53 131 l0 99 829 0 c667 0 831 3 839 13 6
7 12 47 14 89 l3 75 235 -174 c129 -96 235 -177 234 -181 -1 -6 -461 -332
-469 -332 -3 0 -5 40 -5 88 0 55 -4 92 -12 100 -9 9 -135 12 -503 12 -464 0
-493 -1 -508 -18 -23 -25 -21 -58 4 -76 18 -12 83 -14 470 -9 l449 6 0 -111
c0 -118 9 -142 51 -142 11 0 167 102 345 227 309 217 325 229 322 257 -3 25
-43 58 -323 267 -395 294 -395 294 -395 112 l0 -103 -827 0 c-503 0 -834 -4
-843 -10 -10 -6 -17 -33 -20 -88 l-5 -79 -227 156 c-125 86 -227 158 -227 161
0 5 436 333 450 338 5 2 9 -26 9 -62 0 -103 -37 -96 525 -96 366 0 486 3 505
13 34 17 39 60 8 81 -20 14 -77 16 -480 16 l-458 0 0 86 c0 47 -5 94 -10 105
-24 43 -56 25 -375 -216z"/>
</g>
</svg>
