<?xml version="1.0" standalone="no"?>
<!DOCTYPE svg PUBLIC "-//W3C//DTD SVG 20010904//EN"
 "http://www.w3.org/TR/2001/REC-SVG-20010904/DTD/svg10.dtd">
<svg version="1.0" xmlns="http://www.w3.org/2000/svg"
 width="750.000000pt" height="634.000000pt" viewBox="0 0 750.000000 634.000000"
 preserveAspectRatio="xMidYMid meet">

<g transform="translate(0.000000,634.000000) scale(0.100000,-0.100000)"
fill="#000000" stroke="none">
<path d="M2252 4298 c-9 -9 -12 -118 -12 -430 l0 -418 23 -14 c12 -7 297 -64
632 -126 336 -62 613 -115 617 -119 4 -3 -271 -68 -610 -145 -339 -76 -627
-144 -639 -152 l-23 -14 0 -419 c0 -452 0 -449 52 -439 44 8 2943 1121 2961
1136 24 21 21 59 -5 76 -32 20 -2941 1076 -2965 1076 -10 0 -24 -5 -31 -12z"/>
</g>
</svg>
