<?xml version="1.0" standalone="no"?>
<!DOCTYPE svg PUBLIC "-//W3C//DTD SVG 20010904//EN"
 "http://www.w3.org/TR/2001/REC-SVG-20010904/DTD/svg10.dtd">
<svg version="1.0" xmlns="http://www.w3.org/2000/svg"
 width="750.000000pt" height="634.000000pt" viewBox="0 0 750.000000 634.000000"
 preserveAspectRatio="xMidYMid meet">

<g transform="translate(0.000000,634.000000) scale(0.100000,-0.100000)"
fill="#000000" stroke="none">
<path d="M3983 4472 c-17 -9 -212 -208 -433 -442 -221 -234 -421 -444 -443
-467 l-41 -43 524 0 525 1 224 237 c122 130 222 242 221 247 -1 6 -99 112
-217 237 -139 147 -225 230 -245 237 -43 15 -78 13 -115 -7z"/>
<path d="M4496 3706 l-178 -186 85 0 c46 0 97 -3 113 -6 27 -5 39 6 153 126
l124 132 -60 59 -59 60 -178 -185z"/>
<path d="M4834 3597 c-179 -187 -169 -175 -152 -194 31 -36 51 -90 62 -167
l12 -79 109 117 c61 65 115 129 122 144 30 67 2 154 -69 219 l-24 23 -60 -63z"/>
<path d="M2557 3330 c-19 -16 -40 -42 -46 -58 -8 -20 -11 -206 -9 -677 l3
-650 22 -31 c48 -67 -8 -64 1023 -64 l932 0 39 22 c25 14 46 37 59 63 19 40
20 62 20 676 0 707 3 678 -69 726 l-34 23 -953 0 -953 0 -34 -30z m693 -540
l0 -240 -255 0 -255 0 0 240 0 240 255 0 255 0 0 -240z m-230 -525 l0 -75
-145 0 -145 0 0 75 0 75 145 0 145 0 0 -75z m450 0 l0 -75 -145 0 -145 0 0 75
0 75 145 0 145 0 0 -75z m450 0 l0 -75 -145 0 -145 0 0 75 0 75 145 0 145 0 0
-75z m440 0 l0 -75 -140 0 -140 0 0 75 0 75 140 0 140 0 0 -75z"/>
<path d="M2880 2785 l0 -85 115 0 115 0 0 85 0 85 -115 0 -115 0 0 -85z"/>
</g>
</svg>
