<svg id="logo_twin" data-name="logo twin" xmlns="http://www.w3.org/2000/svg" width="24.986" height="24.986" viewBox="0 0 24.986 24.986">
  <g id="Grupo_746" data-name="Grupo 746" transform="translate(0 -35.014)">
    <g id="sombra" style="isolation: isolate">
      <path id="Rectangle_DS" data-name="Rectangle DS" d="M5.83,0H19.156a5.83,5.83,0,0,1,5.83,5.83V19.156a5.83,5.83,0,0,1-5.83,5.83H5.83A5.83,5.83,0,0,1,0,19.156V5.83A5.83,5.83,0,0,1,5.83,0Z" transform="translate(0 35.014)" fill="#edeef2"/>
      <path id="Rectangle_WS" data-name="Rectangle WS" d="M5.83,0H19.156a5.83,5.83,0,0,1,5.83,5.83V19.156a5.83,5.83,0,0,1-5.83,5.83H5.83A5.83,5.83,0,0,1,0,19.156V5.83A5.83,5.83,0,0,1,5.83,0Z" transform="translate(0 35.014)" fill="#000"/>
    </g>
  </g>
  <path id="Trazado_361" data-name="Trazado 361" d="M722.881,174.282l0-.013a1.917,1.917,0,0,0,.09-.456,1.615,1.615,0,0,0-.374-1.175,1.573,1.573,0,0,0-1.16-.521c-.046,0-.092,0-.138.006a6.428,6.428,0,1,0-8.468,9.671,1.555,1.555,0,0,0,.4.976,1.591,1.591,0,0,0,1.225.4c.053,0,.1,0,.152-.007a1.394,1.394,0,0,0,.2-.035,1.022,1.022,0,0,0,.28-.081,6.4,6.4,0,0,0,1.923.294,7.125,7.125,0,0,0,2.845-.656,6.927,6.927,0,0,0,2.384.416h0a5.035,5.035,0,0,0,.59-.029.494.494,0,0,0,.224-.893,5.022,5.022,0,0,1-.735-1.638,6.429,6.429,0,0,0,.562-6.254Zm-.357-.256-.012-.023-.019-.03a.487.487,0,0,0-.062-.071.545.545,0,0,0-.1-.071.58.58,0,0,0-.125-.058.5.5,0,0,0-.073-.02.944.944,0,0,0-.6.135,5.434,5.434,0,0,1-.153,6.258.494.494,0,0,0-.082.418,9.8,9.8,0,0,0,.551,1.532,5.728,5.728,0,0,1-1.826-.411.5.5,0,0,0-.412.014,6.2,6.2,0,0,1-2.6.648,5.408,5.408,0,0,1-2.271-.5l0,0a.72.72,0,0,0-.207.442.678.678,0,0,0,0,.086.667.667,0,0,0,.029.153.633.633,0,0,0,.052.124c.012.02.023.037.035.054l-.132-.074,0,0a.683.683,0,0,1-.042-.057.829.829,0,0,1-.055-.1c-.01-.021-.02-.041-.029-.064a.891.891,0,0,1-.054-.2c0-.019,0-.037-.006-.056s0-.042,0-.063,0-.019,0-.028v-.044l0-.015,0-.03a1.386,1.386,0,0,1,.306-.629c.067-.086.278-.317.414-.458l.106-.107h0c.426-.376.846-.717,1.306-1.066l.254-.19.292,1.249a.283.283,0,0,0,.551,0c0-.006,0-.013,0-.019l.476-3.1a.278.278,0,0,0-.058-.218.282.282,0,0,0-.2-.106l-3.124-.241a.283.283,0,0,0-.295.207.238.238,0,0,0-.008.043.284.284,0,0,0,.156.286l1.1.541-.231.194c-.328.28-.619.54-.889.8-.37.352-.985,1.02-1.026,1.088a3.722,3.722,0,0,0-.329.474,5.438,5.438,0,0,1,6.995-8.271c-.129.057-.261.121-.4.192a12.738,12.738,0,0,0-1.221.728c-.312.209-.634.437-.983.7l-.243.184-.29-1.2a.287.287,0,0,0-.247-.217.252.252,0,0,0-.044,0,.286.286,0,0,0-.27.244l-.459,3.136a.288.288,0,0,0,.06.221.282.282,0,0,0,.2.106l3.161.222h.02a.286.286,0,0,0,.125-.543l-1.166-.566.244-.208c.309-.26.593-.487.867-.694a11,11,0,0,1,1.022-.693c.1-.058.194-.111.285-.158l.107-.057.007,0c.128-.071.261-.139.393-.2a1.785,1.785,0,0,1,.186-.071c.033-.01.066-.02.1-.028s.069-.015.1-.021a.889.889,0,0,1,.215-.007l.027,0h.022l.007,0,.022,0,.024.005c.018,0,.037.009.053.015l.047.017a.777.777,0,0,1,.162.09.722.722,0,0,1,.12.107.609.609,0,0,1,.079.108.545.545,0,0,1,.042.092l.01.035c0,.011,0,.02,0,.027l0,.022Z" transform="translate(-704.579 -164.474)" fill="#fff"/>
</svg>
