<?xml version="1.0" standalone="no"?>
<!DOCTYPE svg PUBLIC "-//W3C//DTD SVG 20010904//EN"
 "http://www.w3.org/TR/2001/REC-SVG-20010904/DTD/svg10.dtd">
<svg version="1.0" xmlns="http://www.w3.org/2000/svg"
 width="750.000000pt" height="634.000000pt" viewBox="0 0 750.000000 634.000000"
 preserveAspectRatio="xMidYMid meet">

<g transform="translate(0.000000,634.000000) scale(0.100000,-0.100000)"
fill="#000000" stroke="none">
<path d="M2621 4534 c-168 -36 -285 -144 -325 -299 -14 -52 -16 -199 -16
-1179 l0 -1120 21 -44 c13 -26 38 -54 62 -70 l41 -27 1251 0 1251 0 37 25 c22
15 48 46 62 74 25 49 25 54 25 297 l0 248 -417 3 -418 3 -68 32 c-292 139
-358 536 -126 758 34 33 87 69 126 88 l68 32 418 3 418 3 -3 263 -3 263 -28
41 c-15 23 -45 51 -67 62 -39 20 -55 20 -1132 20 -1021 0 -1095 1 -1127 18
-52 26 -76 65 -76 122 0 38 5 54 25 75 52 57 9 55 1050 55 1058 0 1010 -3
1050 62 41 68 14 165 -55 194 -50 21 -1947 20 -2044 -2z"/>
<path d="M4204 3188 c-53 -17 -125 -80 -157 -137 -23 -41 -31 -69 -35 -126 -8
-128 46 -233 149 -290 l54 -30 473 -3 473 -3 29 30 30 29 0 242 0 242 -29 29
-29 29 -464 -1 c-281 -1 -475 -5 -494 -11z m401 -179 c66 -58 70 -152 9 -212
-99 -99 -260 3 -222 141 18 68 62 100 135 101 34 1 50 -5 78 -30z"/>
</g>
</svg>
