<?xml version="1.0" standalone="no"?>
<!DOCTYPE svg PUBLIC "-//W3C//DTD SVG 20010904//EN"
 "http://www.w3.org/TR/2001/REC-SVG-20010904/DTD/svg10.dtd">
<svg version="1.0" xmlns="http://www.w3.org/2000/svg"
 width="750.000000pt" height="634.000000pt" viewBox="0 0 750.000000 634.000000"
 preserveAspectRatio="xMidYMid meet">

<g transform="translate(0.000000,634.000000) scale(0.100000,-0.100000)"
fill="#000000" stroke="none">
<path d="M2341 4235 c-28 -86 -87 -278 -132 -428 -44 -150 -110 -368 -145
-485 -35 -116 -64 -216 -64 -222 0 -27 61 -38 660 -115 195 -25 420 -54 500
-65 311 -42 618 -82 920 -120 554 -70 714 -89 759 -92 l43 -3 189 629 c104
346 189 640 189 652 0 13 -3 25 -8 27 -9 6 -265 42 -807 112 -236 31 -565 73
-730 95 -165 22 -446 58 -625 80 -464 58 -630 79 -667 85 l-32 6 -50 -156z
m1418 -186 c143 -23 251 -81 325 -175 102 -131 114 -320 29 -477 -38 -69 -130
-175 -184 -212 -71 -48 -310 -125 -391 -125 -240 0 -443 161 -477 378 -44 279
211 570 537 612 84 11 91 11 161 -1z"/>
<path d="M3655 3885 c-3 -8 -7 -21 -9 -28 -2 -8 -32 -24 -65 -36 -70 -25 -91
-50 -99 -116 -6 -56 20 -99 107 -176 66 -58 77 -90 40 -110 -25 -13 -76 -1
-141 32 -37 19 -38 19 -58 -1 -38 -38 -16 -78 60 -110 28 -11 29 -15 24 -50
-6 -36 -5 -38 25 -45 38 -8 51 -1 51 30 0 27 18 39 71 49 63 11 109 78 109
159 0 38 -6 47 -86 129 -47 48 -84 93 -82 100 8 23 83 21 129 -3 l43 -21 23
26 c13 15 23 32 23 39 0 7 -23 24 -50 39 -46 26 -49 30 -43 59 4 21 1 34 -8
40 -22 14 -59 10 -64 -6z"/>
<path d="M5271 3526 c-6 -14 -40 -124 -76 -243 -36 -120 -102 -339 -147 -486
l-81 -269 -56 7 c-31 3 -103 12 -161 20 -58 8 -157 21 -220 29 -147 20 -346
47 -630 86 -1517 209 -1655 227 -1666 214 -12 -15 -47 -164 -40 -171 2 -2 181
-29 397 -58 217 -30 543 -75 724 -100 182 -25 429 -59 550 -75 121 -16 431
-59 690 -94 258 -36 471 -63 473 -61 8 8 361 1209 357 1214 -3 2 -27 6 -55 9
-46 4 -50 3 -59 -22z"/>
<path d="M5409 3113 c-6 -15 -47 -140 -91 -278 -239 -747 -217 -685 -246 -685
-25 0 -778 107 -1537 219 -961 141 -1168 171 -1170 169 -12 -13 -75 -143 -75
-154 0 -14 13 -18 90 -29 25 -3 324 -46 665 -95 712 -102 1938 -275 2038 -288
37 -5 70 -6 72 -2 3 4 50 135 105 291 56 156 146 407 201 558 54 151 99 278
99 283 0 12 -35 24 -93 32 -45 7 -47 6 -58 -21z"/>
</g>
</svg>
