<?xml version="1.0" standalone="no"?>
<!DOCTYPE svg PUBLIC "-//W3C//DTD SVG 20010904//EN"
 "http://www.w3.org/TR/2001/REC-SVG-20010904/DTD/svg10.dtd">
<svg version="1.0" xmlns="http://www.w3.org/2000/svg"
 width="750.000000pt" height="634.000000pt" viewBox="0 0 750.000000 634.000000"
 preserveAspectRatio="xMidYMid meet">

<g transform="translate(0.000000,634.000000) scale(0.100000,-0.100000)"
fill="#000000" stroke="none">
<path d="M3570 4844 c-780 -98 -1376 -766 -1416 -1589 -24 -478 164 -963 500
-1294 57 -57 65 -69 71 -113 17 -119 113 -248 213 -283 68 -24 234 -31 296
-11 47 14 53 14 135 -10 160 -46 250 -57 441 -51 193 6 267 18 430 74 549 186
949 653 1082 1263 20 93 22 133 22 345 0 273 -11 350 -85 568 -39 115 -39 120
-28 178 15 77 6 178 -22 254 -17 45 -40 77 -89 126 -73 74 -138 105 -244 116
-56 6 -66 11 -131 66 -183 158 -443 286 -695 342 -73 16 -398 29 -480 19z
m430 -268 c161 -35 314 -98 459 -189 l64 -41 -41 -20 -41 -19 -118 60 c-195
100 -364 143 -568 143 -343 0 -650 -132 -895 -386 -233 -241 -361 -542 -377
-890 -15 -336 81 -647 283 -912 l51 -68 -17 -33 -17 -34 -53 64 c-64 76 -146
201 -188 285 -44 87 -99 250 -124 368 -31 146 -31 428 0 568 31 142 65 238
132 373 128 259 347 484 589 604 163 81 291 123 433 141 102 12 338 5 428 -14z
m-10 -151 c90 -19 95 -21 125 -66 17 -26 36 -42 55 -46 42 -8 58 -29 37 -50
-15 -15 -18 -14 -46 16 -32 35 -56 37 -56 6 0 -12 17 -29 45 -45 35 -20 45
-32 45 -52 0 -22 -19 -40 -110 -106 -60 -45 -145 -108 -187 -142 -43 -34 -78
-59 -78 -57 0 2 -16 73 -35 158 -29 130 -38 157 -60 177 -14 12 -35 22 -46 22
-11 0 -30 -10 -42 -22 -20 -21 -28 -66 -80 -438 -32 -228 -60 -417 -62 -419
-2 -2 -18 8 -35 23 -17 14 -37 26 -43 27 -144 7 -150 7 -205 -22 -54 -29 -125
-39 -137 -19 -3 5 -7 33 -7 61 -1 46 -5 54 -30 68 -32 18 -33 26 -13 74 21 52
1 57 -45 12 -48 -47 -70 -42 -70 13 0 82 45 153 122 193 47 24 63 24 89 -2 16
-16 20 -29 16 -55 -3 -19 -2 -34 3 -34 13 0 22 35 15 62 -4 17 2 34 24 62 17
21 31 45 31 53 0 22 90 113 127 128 18 8 34 20 34 27 1 7 2 20 3 28 1 10 12
15 36 16 36 0 80 18 80 33 0 5 -7 14 -15 21 -25 21 -17 37 21 45 26 4 41 2 53
-9 22 -20 41 -20 41 -1 0 25 -29 73 -50 85 -11 6 -20 17 -20 24 0 13 -61 56
-80 56 -5 0 -16 -13 -25 -29 -8 -16 -24 -33 -36 -36 -11 -4 -27 -22 -35 -41
-18 -43 -44 -45 -44 -4 0 18 -6 33 -15 36 -34 14 5 64 50 64 11 0 40 14 64 30
41 28 45 29 72 15 54 -28 83 -9 61 40 -10 22 -8 23 35 30 24 3 46 5 47 3 18
-25 46 -82 46 -94 0 -28 28 -13 81 45 l54 60 65 -5 c36 -3 94 -12 130 -19z
m-1080 -350 c0 -3 -22 -29 -49 -59 -51 -56 -65 -87 -76 -171 -4 -27 -13 -62
-21 -77 -17 -33 -18 -71 -2 -66 6 2 17 19 23 38 6 19 17 36 25 38 10 4 12 -16
8 -101 -6 -104 -5 -108 23 -151 22 -35 35 -46 64 -52 24 -4 45 -18 63 -40 15
-19 33 -34 40 -34 7 0 18 -11 24 -25 17 -37 54 -58 89 -50 33 7 59 -7 59 -33
0 -8 -18 -55 -41 -104 -23 -49 -43 -107 -46 -129 -5 -37 -3 -42 49 -93 49 -46
56 -59 62 -104 5 -38 15 -62 38 -87 l30 -35 -108 -105 c-60 -57 -152 -153
-204 -214 -52 -60 -99 -108 -105 -107 -19 5 -126 162 -175 259 -214 423 -180
953 85 1339 80 116 145 189 145 163z m2113 -41 c39 -20 66 -43 78 -66 9 -16 6
-16 -23 2 -40 24 -103 26 -157 4 l-39 -16 35 -60 c78 -133 130 -275 165 -453
29 -145 31 -394 4 -535 -37 -192 -116 -391 -217 -545 -61 -94 -221 -260 -327
-339 -380 -286 -842 -350 -1275 -177 l-71 28 -17 -21 c-37 -47 -46 -121 -22
-182 3 -10 0 -12 -10 -8 -40 15 -62 176 -34 249 29 74 26 73 115 32 354 -162
734 -157 1072 13 133 67 230 138 336 246 188 190 306 415 366 698 30 143 30
389 0 532 -40 186 -104 348 -196 489 -26 40 -41 74 -36 79 18 18 117 45 168
46 30 0 67 -7 85 -16z m-335 -101 c-2 -12 -13 -18 -34 -19 -17 -1 -36 -4 -43
-8 -6 -4 -11 -5 -11 -2 0 6 71 45 83 46 5 0 7 -8 5 -17z m-467 -352 c-16 -29
-13 -50 10 -79 35 -46 69 -102 61 -102 -15 0 -186 97 -189 107 -2 6 24 34 59
63 60 50 82 54 59 11z m383 -246 c11 -8 31 -15 44 -15 24 0 24 -1 17 -69 -6
-63 -5 -73 19 -114 32 -53 32 -89 5 -193 -15 -55 -22 -114 -23 -194 -2 -95 -6
-123 -24 -160 -24 -51 -28 -117 -9 -145 19 -25 60 -13 91 28 27 36 128 207
163 277 29 59 29 37 -1 -42 -67 -179 -162 -326 -300 -464 -189 -190 -404 -302
-653 -339 -175 -27 -336 -17 -500 31 -87 25 -243 92 -243 104 0 13 119 146
167 187 l51 42 22 -87 c26 -104 50 -147 91 -161 30 -10 31 -10 24 12 -12 39
-25 161 -18 182 3 11 19 36 34 56 18 23 29 49 29 68 0 20 5 31 14 31 7 0 30
18 50 40 23 25 38 36 41 28 2 -7 18 -73 35 -147 16 -74 37 -143 46 -153 22
-23 76 -24 96 0 11 12 34 145 77 441 72 496 75 458 -44 501 -151 53 -207 64
-252 48 -41 -15 -50 -6 -35 35 7 19 12 48 12 65 0 31 1 32 43 32 23 -1 186
-11 362 -24 176 -13 329 -20 340 -16 25 10 42 29 46 54 3 14 18 23 50 32 26 6
57 19 70 28 28 20 38 20 63 1z"/>
</g>
</svg>
