<?xml version="1.0" standalone="no"?>
<!DOCTYPE svg PUBLIC "-//W3C//DTD SVG 20010904//EN"
 "http://www.w3.org/TR/2001/REC-SVG-20010904/DTD/svg10.dtd">
<svg version="1.0" xmlns="http://www.w3.org/2000/svg"
 width="750.000000pt" height="634.000000pt" viewBox="0 0 750.000000 634.000000"
 preserveAspectRatio="xMidYMid meet">

<g transform="translate(0.000000,634.000000) scale(0.100000,-0.100000)"
fill="#000000" stroke="none">
<path d="M3712 5233 l-2 -473 -230 0 -230 0 0 -1225 0 -1225 230 0 230 0 3
-367 2 -368 3 368 2 367 200 0 200 0 0 1225 0 1225 -197 2 -198 3 -5 470 -5
470 -3 -472z"/>
<path d="M1982 4338 l-2 -438 -230 0 -230 0 2 -1297 3 -1298 227 -3 228 -2 3
-333 2 -332 3 333 2 332 200 0 200 0 0 1300 0 1300 -200 0 -200 0 -3 438 -2
437 -3 -437z"/>
<path d="M5442 4333 l-2 -433 -230 0 -230 0 0 -1300 0 -1300 230 0 230 0 3
-327 2 -328 3 327 2 328 198 2 197 3 3 1298 2 1297 -200 0 -200 0 -3 433 -2
432 -3 -432z"/>
</g>
</svg>
