<?xml version="1.0" standalone="no"?>
<!DOCTYPE svg PUBLIC "-//W3C//DTD SVG 20010904//EN"
 "http://www.w3.org/TR/2001/REC-SVG-20010904/DTD/svg10.dtd">
<svg version="1.0" xmlns="http://www.w3.org/2000/svg"
 width="750.000000pt" height="634.000000pt" viewBox="0 0 750.000000 634.000000"
 preserveAspectRatio="xMidYMid meet">

<g transform="translate(0.000000,634.000000) scale(0.100000,-0.100000)"
fill="#000000" stroke="none">
<path d="M3014 4041 c-47 -22 -80 -59 -95 -110 -7 -24 -9 -282 -7 -787 l3
-751 29 -37 c16 -21 48 -47 72 -57 41 -19 74 -19 752 -17 l708 3 41 27 c82 54
78 10 81 828 2 497 -1 741 -8 777 -14 65 -58 116 -115 132 -28 7 -256 11 -730
11 -650 0 -692 -2 -731 -19z m531 -521 l0 -155 -145 0 -145 0 -3 145 c-1 79 0
150 3 157 3 11 36 13 147 11 l143 -3 0 -155z m105 141 c5 -11 10 -72 10 -135
l0 -116 94 0 c108 0 106 2 106 -95 l0 -64 48 -3 c39 -3 47 -6 47 -23 0 -18 -8
-20 -71 -23 -82 -3 -84 -2 -84 101 l0 57 -94 0 c-76 0 -95 3 -100 16 -12 30
-7 279 6 292 17 17 26 15 38 -7z m198 7 c7 -7 12 -44 12 -98 0 -54 -5 -91 -12
-98 -7 -7 -38 -12 -70 -12 -45 0 -59 4 -67 18 -14 27 5 42 51 42 l38 0 0 61
c0 82 19 116 48 87z m357 -148 l0 -155 -145 0 -145 0 -3 145 c-1 79 0 150 3
157 3 11 36 13 147 11 l143 -3 0 -155z m-660 -295 c0 -19 -8 -20 -139 -23
-141 -3 -164 2 -153 33 6 13 26 15 149 13 135 -3 143 -4 143 -23z m202 14 c26
-26 2 -39 -67 -39 -71 0 -85 6 -74 34 5 12 21 16 68 16 34 0 67 -5 73 -11z
m458 -14 c0 -18 -8 -20 -89 -23 -91 -3 -113 4 -102 33 5 13 21 15 98 13 85 -3
93 -5 93 -23z m-907 -108 c4 -20 -25 -34 -40 -19 -15 15 -1 44 19 40 10 -2 19
-11 21 -21z m456 7 c10 -26 7 -154 -4 -175 -13 -23 -36 -25 -44 -3 -3 9 -6 45
-6 80 l0 64 -169 0 c-170 0 -189 4 -177 35 4 12 39 15 200 15 168 0 195 -2
200 -16z m100 7 c10 -16 -5 -41 -25 -41 -14 0 -19 7 -19 25 0 18 5 25 19 25
11 0 22 -4 25 -9z m351 -16 c0 -19 -8 -20 -139 -23 -141 -3 -164 2 -153 33 6
13 26 15 149 13 135 -3 143 -4 143 -23z m-357 -87 c8 -8 12 -62 12 -178 0
-116 -4 -170 -12 -178 -15 -15 -120 -16 -136 0 -22 22 5 48 48 48 l40 0 0 141
c0 160 12 203 48 167z m-303 -208 l0 -155 -145 0 -145 0 -3 145 c-1 79 0 150
3 157 3 11 36 13 147 11 l143 -3 0 -155z m660 0 l0 -155 -145 0 -145 0 -3 145
c-1 79 0 150 3 157 3 11 36 13 147 11 l143 -3 0 -155z m-467 51 c8 -5 12 -17
10 -27 -2 -15 -14 -20 -51 -22 l-47 -3 0 -74 c0 -76 -10 -96 -35 -75 -11 9
-15 36 -15 101 0 73 3 90 18 98 21 13 102 14 120 2z"/>
<path d="M3300 3515 l0 -105 100 0 100 0 0 105 0 105 -100 0 -100 0 0 -105z
m134 39 c24 -24 20 -61 -9 -80 -23 -15 -27 -15 -50 0 -42 28 -24 96 25 96 10
0 26 -7 34 -16z"/>
<path d="M3960 3515 l0 -105 100 0 100 0 0 105 0 105 -100 0 -100 0 0 -105z
m148 3 c3 -44 1 -48 -22 -54 -15 -3 -37 -3 -51 0 -22 6 -25 12 -25 50 0 23 3
46 7 50 4 4 25 6 48 4 l40 -3 3 -47z"/>
<path d="M3300 2825 l0 -105 100 0 100 0 0 105 0 105 -100 0 -100 0 0 -105z
m128 39 c39 -27 19 -94 -28 -94 -47 0 -67 67 -28 94 12 9 25 16 28 16 3 0 16
-7 28 -16z"/>
<path d="M3960 2825 l0 -105 100 0 100 0 0 105 0 105 -100 0 -100 0 0 -105z
m138 46 c9 -5 12 -24 10 -52 l-3 -44 -45 0 -45 0 -3 44 c-4 48 6 61 48 61 14
0 31 -4 38 -9z"/>
</g>
</svg>
