<svg xmlns="http://www.w3.org/2000/svg" width="16.254" height="24" viewBox="0 0 16.254 24">
  <g id="userSupport" transform="translate(-1574.001 -32)">
    <path id="cuerpo" d="M980.042,1217.88h-6.063c-2.729,0-4.948,1.84-4.948,4.1v3.564a.916.916,0,0,0,.989.82H984a.92.92,0,0,0,.989-.82v-3.564C984.994,1219.72,982.771,1217.88,980.042,1217.88Z" transform="translate(604.971 -1170.369)" fill="#000"/>
    <path id="cabeza" d="M980.279,1181.05a5.952,5.952,0,1,0,5.956,5.956A5.952,5.952,0,0,0,980.279,1181.05Z" transform="translate(601.701 -1147.655)" fill="#000"/>
    <path id="audifonos" d="M985.522,1183.324c-.272,0-.28-.149-.291-.33a5.629,5.629,0,0,0-1.368-3.384,6.754,6.754,0,0,0-6.857-1.962,5.967,5.967,0,0,0-4.469,4.856.408.408,0,0,1,0,.069s-.034.548-.065,1.3H972v3.093h.4a2.774,2.774,0,0,0,.142,1c.057.088.138.157.418.134a.356.356,0,0,0,.353-.291,2.714,2.714,0,0,0,.046-.5v-4.135a4.173,4.173,0,0,1,.065-.9,5.347,5.347,0,0,1,5.523-4.074,5.182,5.182,0,0,1,5.366,4.768c.038,1.625.019,3.246,0,4.871a2.419,2.419,0,0,1-1.211,2.031,3.951,3.951,0,0,1-2.4.464.556.556,0,0,1-.471-.2,1.006,1.006,0,0,0-.8-.406h-1.181a1.035,1.035,0,0,0-.977.648.908.908,0,0,0,.23,1.054,2.483,2.483,0,0,0,2.71-.065.153.153,0,0,0,.042-.054c.092-.18.257-.207.456-.207a7.115,7.115,0,0,0,1.4-.038,3.561,3.561,0,0,0,3-2.618c.05-.176.061-.356.345-.341a1.6,1.6,0,0,0,1.663-1.027v-2.683A1.61,1.61,0,0,0,985.522,1183.324Z" transform="translate(603.139 -1145.41)" fill="#175791"/>
  </g>
</svg>
