<svg xmlns="http://www.w3.org/2000/svg" width="24.25" height="24.25" viewBox="0 0 24.25 24.25">
  <g id="calc" transform="translate(-4346.024 4200.146)">
    <path id="Trazado_1606" data-name="Trazado 1606" d="M4352.019-4183.092l.7.7-.7.7,0,0,.7-.7-.7-.7Z" transform="translate(0.129 0.372)" fill="#000" stroke="#000" stroke-miterlimit="10" stroke-width="0.25"/>
    <path id="Trazado_1607" data-name="Trazado 1607" d="M4367.649-4200.021h-19a2.5,2.5,0,0,0-2.5,2.5v19a2.5,2.5,0,0,0,2.5,2.5h19a2.5,2.5,0,0,0,2.5-2.5v-19A2.5,2.5,0,0,0,4367.649-4200.021Zm1.5,2.5v9h-10.5v-10.5h9A1.5,1.5,0,0,1,4369.149-4197.521Zm-22,0a1.5,1.5,0,0,1,1.5-1.5h9v10.5h-10.5Zm0,19v-9h10.5v10.5h-9A1.5,1.5,0,0,1,4347.148-4178.521Zm22,0a1.5,1.5,0,0,1-1.5,1.5h-9v-10.5h10.5Z" fill="#000" stroke="#000" stroke-miterlimit="10" stroke-width="0.25"/>
    <path id="Trazado_1608" data-name="Trazado 1608" d="M4361.816-4193.15h4a.5.5,0,0,0,.5-.5.5.5,0,0,0-.5-.5h-4a.494.494,0,0,0-.5.5A.5.5,0,0,0,4361.816-4193.15Z" transform="translate(0.333 0.129)" fill="#000" stroke="#000" stroke-miterlimit="10" stroke-width="0.25"/>
    <path id="Trazado_1609" data-name="Trazado 1609" d="M4361.816-4183.365h4a.5.5,0,0,0,.5-.5.5.5,0,0,0-.5-.5h-4a.5.5,0,0,0-.5.5A.494.494,0,0,0,4361.816-4183.365Z" transform="translate(0.333 0.344)" fill="#000" stroke="#000" stroke-miterlimit="10" stroke-width="0.25"/>
    <path id="Trazado_1610" data-name="Trazado 1610" d="M4361.816-4180.43h4a.5.5,0,0,0,.5-.5.5.5,0,0,0-.5-.5h-4a.5.5,0,0,0-.5.5A.494.494,0,0,0,4361.816-4180.43Z" transform="translate(0.333 0.409)" fill="#000" stroke="#000" stroke-miterlimit="10" stroke-width="0.25"/>
    <path id="Trazado_1611" data-name="Trazado 1611" d="M4354.074-4194.107h-1.5v-1.5a.494.494,0,0,0-.5-.5.5.5,0,0,0-.5.5v1.5h-1.5a.5.5,0,0,0-.5.5.5.5,0,0,0,.5.5h1.5v1.5a.5.5,0,0,0,.5.5.494.494,0,0,0,.5-.5v-1.5h1.5a.494.494,0,0,0,.5-.5A.494.494,0,0,0,4354.074-4194.107Z" transform="translate(0.075 0.086)" fill="#000" stroke="#000" stroke-miterlimit="10" stroke-width="0.25"/>
    <path id="Trazado_1612" data-name="Trazado 1612" d="M4353.169-4180.559a.467.467,0,0,0,.35.15.467.467,0,0,0,.35-.15.483.483,0,0,0,0-.7l-1.15-1.149-.7.7Z" transform="translate(0.13 0.387)" fill="#000" stroke="#000" stroke-miterlimit="10" stroke-width="0.25"/>
    <path id="Trazado_1613" data-name="Trazado 1613" d="M4353.87-4184.214a.483.483,0,0,0-.7,0l-1.15,1.15.7.7,1.15-1.15A.483.483,0,0,0,4353.87-4184.214Z" transform="translate(0.13 0.343)" fill="#000" stroke="#000" stroke-miterlimit="10" stroke-width="0.25"/>
    <path id="Trazado_1614" data-name="Trazado 1614" d="M4352.76-4182.366l-.7-.7h0l-1.15-1.15a.483.483,0,0,0-.7,0,.484.484,0,0,0,0,.7l1.148,1.148h0l0,0-1.149,1.148a.485.485,0,0,0,0,.7.47.47,0,0,0,.35.15.467.467,0,0,0,.35-.15l1.15-1.149,0,0Z" transform="translate(0.087 0.343)" fill="#000" stroke="#000" stroke-miterlimit="10" stroke-width="0.25"/>
  </g>
</svg>
