<?xml version="1.0" standalone="no"?>
<!DOCTYPE svg PUBLIC "-//W3C//DTD SVG 20010904//EN"
 "http://www.w3.org/TR/2001/REC-SVG-20010904/DTD/svg10.dtd">
<svg version="1.0" xmlns="http://www.w3.org/2000/svg"
 width="750.000000pt" height="634.000000pt" viewBox="0 0 750.000000 634.000000"
 preserveAspectRatio="xMidYMid meet">

<g transform="translate(0.000000,634.000000) scale(0.100000,-0.100000)"
fill="#000000" stroke="none">
<path d="M3608 4691 c-77 -25 -143 -65 -205 -124 -69 -65 -110 -130 -139 -223
-65 -204 -28 -390 111 -556 l57 -68 323 0 323 0 57 63 c96 107 145 235 145
380 0 218 -113 403 -303 497 -86 43 -91 44 -200 47 -89 2 -124 -1 -169 -16z
m184 -218 c10 -9 18 -22 18 -28 0 -7 15 -24 34 -38 40 -31 66 -82 66 -129 0
-81 -84 -78 -104 4 -7 30 -39 53 -61 44 -8 -3 -21 -16 -31 -30 -15 -24 -15
-28 -1 -50 10 -15 30 -26 54 -31 85 -15 143 -82 143 -165 0 -51 -30 -112 -70
-140 -16 -12 -30 -27 -30 -34 0 -7 -9 -21 -20 -31 -25 -22 -67 -13 -79 18 -5
12 -27 40 -49 62 -72 73 -81 175 -14 175 32 0 52 -16 52 -42 0 -30 44 -68 70
-61 31 8 46 46 32 78 -8 18 -22 26 -52 31 -80 13 -149 89 -150 163 0 48 36
117 71 138 16 10 32 26 35 38 15 47 51 59 86 28z"/>
<path d="M2733 4042 c-11 -7 -105 -196 -261 -524 -33 -70 -57 -129 -54 -132
10 -11 2682 -7 2682 4 0 12 -283 603 -305 636 l-16 24 -201 -2 -202 -3 -11
-50 c-13 -61 -62 -168 -104 -228 l-30 -44 115 -6 c67 -3 121 -10 130 -17 17
-15 18 -43 4 -71 -10 -19 -29 -19 -720 -19 l-710 0 -16 25 c-13 20 -14 31 -6
49 11 26 62 36 185 36 37 0 67 3 67 6 0 3 -11 20 -24 37 -36 48 -94 172 -107
233 l-12 54 -196 0 c-108 0 -202 -4 -208 -8z"/>
<path d="M2390 2462 c0 -781 1 -820 18 -835 17 -16 125 -17 1353 -17 l1334 1
18 24 c16 22 17 75 15 832 l-3 808 -1367 3 -1368 2 0 -818z m1427 433 c143
-43 152 -154 15 -205 -177 -66 -425 -8 -425 100 0 37 23 63 79 91 85 41 222
47 331 14z m619 12 c82 -17 116 -40 112 -75 -7 -62 -171 -100 -298 -68 -110
27 -136 82 -58 122 61 32 154 40 244 21z m-271 -156 c3 -5 36 -17 73 -27 l68
-17 -23 -23 c-13 -13 -23 -28 -23 -34 0 -16 -27 -12 -69 10 -36 18 -51 41 -51
83 0 18 15 23 25 8z m450 -68 c21 -10 48 -31 59 -46 19 -26 19 -30 6 -55 -35
-64 -179 -98 -285 -68 -62 19 -115 61 -115 93 0 30 54 74 107 89 62 18 178 11
228 -13z m-1069 -71 l71 -18 -33 -39 c-19 -21 -34 -44 -34 -52 0 -32 -84 0
-123 46 -21 26 -27 43 -27 82 l0 49 38 -25 c21 -14 70 -33 108 -43z m667 -4
c34 -12 37 -16 37 -50 0 -43 -12 -48 -60 -23 -33 17 -50 43 -50 76 0 23 -2 23
73 -3z m-283 -23 c59 -7 145 -57 165 -95 25 -48 19 -85 -21 -130 -96 -106
-334 -113 -445 -13 -39 36 -57 83 -45 121 9 28 54 71 99 93 40 21 136 39 177
34 14 -2 45 -6 70 -10z m-745 -31 c72 -37 54 -92 -38 -119 -97 -29 -250 -13
-298 31 -30 27 -24 61 13 80 57 29 81 33 183 31 78 -2 109 -7 140 -23z m1160
-64 c42 -21 65 -25 140 -25 89 0 101 3 198 53 14 7 7 -63 -8 -85 -48 -69 -332
-69 -380 0 -15 22 -22 92 -7 85 4 -2 30 -15 57 -28z m-840 -60 l35 -12 0 -64
0 -64 -25 10 c-87 33 -115 68 -115 144 l0 45 35 -24 c20 -13 52 -29 70 -35z
m-573 -42 l56 -13 -30 -33 c-24 -28 -34 -33 -56 -27 -53 13 -72 32 -72 75 0
40 0 40 23 25 12 -8 48 -20 79 -27z m1489 -46 c81 -9 182 2 231 27 l38 18 0
-32 c0 -20 -8 -39 -23 -53 -26 -24 -122 -52 -182 -52 -60 0 -156 28 -182 52
-15 14 -23 33 -23 53 l0 32 39 -19 c21 -10 67 -22 102 -26z m-1131 11 c115
-47 101 -132 -28 -169 -108 -32 -240 -4 -286 59 -19 26 -19 30 -6 54 41 73
208 102 320 56z m395 -110 c52 -24 72 -28 155 -28 107 0 170 18 233 67 l37 29
0 -64 c0 -56 -3 -66 -27 -89 -85 -79 -258 -99 -397 -47 -80 29 -106 65 -106
142 l0 60 23 -21 c12 -11 49 -33 82 -49z m-757 -23 c3 -39 2 -41 -20 -35 -46
13 -73 41 -76 78 l-3 35 48 -18 c46 -17 48 -20 51 -60z m237 -85 c88 0 107 3
153 26 l52 26 0 -38 c0 -44 -29 -72 -94 -90 -101 -28 -268 -4 -301 44 -8 12
-15 36 -15 54 l0 32 52 -27 c47 -24 63 -27 153 -27z m537 -96 c118 -37 308
-16 382 42 l26 20 0 -56 c0 -51 -3 -60 -31 -86 -66 -62 -242 -88 -360 -53
-107 31 -139 66 -139 150 l0 45 31 -22 c17 -12 58 -30 91 -40z m-667 -17 c25
-9 74 -15 130 -15 82 0 113 6 188 38 14 6 17 2 17 -24 0 -41 -27 -66 -91 -85
-143 -43 -319 5 -319 86 0 25 3 29 18 23 9 -4 35 -15 57 -23z"/>
</g>
</svg>
