<?xml version="1.0" standalone="no"?>
<!DOCTYPE svg PUBLIC "-//W3C//DTD SVG 20010904//EN"
 "http://www.w3.org/TR/2001/REC-SVG-20010904/DTD/svg10.dtd">
<svg version="1.0" xmlns="http://www.w3.org/2000/svg"
 width="750.000000pt" height="634.000000pt" viewBox="0 0 750.000000 634.000000"
 preserveAspectRatio="xMidYMid meet">

<g transform="translate(0.000000,634.000000) scale(0.100000,-0.100000)"
fill="#000000" stroke="none">
<path d="M2502 4554 c-22 -15 -22 -17 -22 -298 0 -303 1 -306 51 -306 55 0 59
20 59 277 l0 233 238 0 c258 0 282 5 282 55 0 51 -21 55 -315 55 -229 0 -274
-2 -293 -16z"/>
<path d="M4412 4554 c-12 -8 -22 -26 -22 -39 0 -50 24 -55 282 -55 l238 0 0
-233 c0 -257 4 -277 59 -277 50 0 51 3 51 305 0 260 -1 283 -18 298 -16 15
-52 17 -293 17 -232 0 -278 -2 -297 -16z"/>
<path d="M2523 3360 c-35 -14 -47 -47 -28 -76 l15 -24 1235 0 1235 0 15 24
c20 30 7 62 -31 76 -32 13 -2411 12 -2441 0z"/>
<path d="M2492 2668 c-9 -9 -12 -88 -12 -294 0 -281 0 -283 22 -298 19 -14 64
-16 293 -16 294 0 315 4 315 55 0 50 -24 55 -282 55 l-238 0 0 233 c0 194 -3
236 -16 255 -17 24 -62 30 -82 10z"/>
<path d="M4926 2658 c-13 -19 -16 -61 -16 -255 l0 -233 -240 0 c-227 0 -241
-1 -260 -20 -11 -11 -20 -27 -20 -35 0 -8 9 -24 20 -35 19 -19 33 -20 293 -20
230 0 276 2 295 16 22 15 22 17 22 290 0 171 -4 283 -10 295 -15 27 -64 25
-84 -3z"/>
</g>
</svg>
