<?xml version="1.0" standalone="no"?>
<!DOCTYPE svg PUBLIC "-//W3C//DTD SVG 20010904//EN"
 "http://www.w3.org/TR/2001/REC-SVG-20010904/DTD/svg10.dtd">
<svg version="1.0" xmlns="http://www.w3.org/2000/svg"
 width="750.000000pt" height="634.000000pt" viewBox="0 0 750.000000 634.000000"
 preserveAspectRatio="xMidYMid meet">

<g transform="translate(0.000000,634.000000) scale(0.100000,-0.100000)"
fill="#000000" stroke="none">
<path d="M2783 4650 c-42 -25 -45 -47 -41 -249 l3 -163 28 -24 c28 -24 32 -24
217 -24 185 0 189 0 217 24 l28 24 3 163 c4 202 1 224 -41 249 -29 18 -51 20
-207 20 -156 0 -178 -2 -207 -20z"/>
<path d="M3530 4663 c-8 -3 -25 -15 -37 -26 -21 -19 -23 -29 -23 -141 l0 -120
33 30 c48 45 80 63 148 80 98 25 191 6 270 -57 l39 -31 0 109 c0 105 -1 111
-26 134 -25 23 -30 24 -207 26 -100 1 -189 -1 -197 -4z"/>
<path d="M4239 4655 c-40 -22 -49 -63 -49 -227 0 -166 11 -211 55 -228 15 -6
107 -10 206 -10 l181 0 29 29 29 29 0 181 c0 176 -1 181 -24 208 l-24 28 -189
2 c-150 2 -193 0 -214 -12z"/>
<path d="M3643 4320 c-71 -43 -67 -7 -73 -679 l-5 -605 -102 126 c-110 136
-128 148 -214 148 -42 0 -55 -5 -89 -36 -49 -45 -66 -94 -51 -149 14 -53 554
-723 626 -777 28 -21 79 -48 115 -60 59 -21 84 -23 280 -23 138 0 234 4 268
13 176 41 320 181 357 345 13 61 15 133 13 449 -3 364 -4 378 -24 405 -34 46
-82 73 -131 73 -44 0 -123 -32 -123 -50 0 -6 -4 -10 -10 -10 -5 0 -10 16 -10
35 0 82 -55 143 -135 153 -57 6 -86 -2 -124 -34 l-31 -26 0 24 c-1 67 -62 138
-131 153 -38 9 -102 -11 -139 -41 l-30 -26 0 254 c0 235 -2 255 -20 286 -43
70 -147 95 -217 52z"/>
<path d="M2803 3969 c-55 -16 -63 -45 -63 -234 0 -193 7 -218 68 -234 20 -6
102 -11 182 -11 80 0 162 5 182 11 61 16 68 41 68 234 0 193 -7 218 -68 234
-45 13 -325 13 -369 0z"/>
<path d="M4222 3947 c-30 -32 -28 -41 16 -82 34 -31 42 -34 98 -35 73 0 166
-41 212 -94 26 -30 37 -34 86 -38 l56 -3 0 113 c0 107 -1 114 -25 137 -24 25
-25 25 -223 25 -195 0 -199 0 -220 -23z"/>
<path d="M2769 3250 l-30 -30 3 -186 3 -186 28 -24 c27 -23 33 -24 203 -24
l174 0 -82 103 c-44 56 -89 120 -99 142 -21 45 -26 166 -9 209 l10 26 -86 0
c-82 0 -87 -1 -115 -30z"/>
<path d="M3671 2096 c-44 -24 -50 -51 -51 -203 0 -156 7 -186 51 -209 38 -19
1003 -21 1044 -2 46 21 55 53 55 208 0 155 -9 187 -55 208 -40 18 -1011 16
-1044 -2z"/>
</g>
</svg>
