<?xml version="1.0" standalone="no"?>
<!DOCTYPE svg PUBLIC "-//W3C//DTD SVG 20010904//EN"
 "http://www.w3.org/TR/2001/REC-SVG-20010904/DTD/svg10.dtd">
<svg version="1.0" xmlns="http://www.w3.org/2000/svg"
 width="750.000000pt" height="634.000000pt" viewBox="0 0 750.000000 634.000000"
 preserveAspectRatio="xMidYMid meet">

<g transform="translate(0.000000,634.000000) scale(0.100000,-0.100000)"
fill="#000000" stroke="none">
<path d="M3530 4555 c-235 -39 -478 -158 -661 -322 -236 -212 -391 -484 -454
-798 -19 -95 -31 -292 -21 -358 11 -72 29 -86 131 -107 114 -24 137 -24 166
-1 23 19 24 23 24 193 1 148 4 186 24 262 52 201 152 377 293 518 197 197 446
301 718 301 143 -1 241 -18 356 -62 97 -37 231 -116 299 -175 l50 -43 -58 -62
c-41 -45 -57 -70 -57 -90 0 -58 22 -70 301 -164 145 -49 277 -89 293 -90 42 0
80 46 73 87 -9 48 -96 505 -108 564 -21 105 -83 122 -167 47 -27 -25 -53 -45
-56 -45 -3 0 -29 21 -58 47 -161 143 -417 262 -642 298 -110 18 -341 18 -446
0z"/>
<path d="M3720 3926 l0 -83 -45 -6 c-60 -9 -155 -58 -199 -103 -102 -105 -115
-295 -28 -412 45 -62 94 -95 248 -171 143 -70 164 -91 164 -166 0 -87 -49
-127 -128 -105 -55 14 -92 57 -100 116 l-7 49 -139 3 -139 3 6 -67 c15 -163
116 -274 287 -317 l55 -14 3 -82 3 -81 64 0 64 0 3 82 3 82 50 11 c74 16 153
63 192 114 98 129 79 343 -42 449 -24 21 -107 71 -185 112 -158 82 -180 104
-180 178 0 81 85 130 149 86 26 -19 51 -71 51 -109 l0 -25 140 0 c161 0 152
-7 126 101 -30 131 -121 223 -254 258 l-42 12 0 84 0 85 -60 0 -60 0 0 -84z"/>
<path d="M4819 3371 c-23 -19 -24 -24 -25 -183 -1 -172 -12 -240 -57 -373 -56
-163 -147 -303 -275 -427 -141 -135 -285 -217 -470 -265 -130 -34 -314 -36
-447 -5 -154 35 -337 128 -455 230 l-35 30 46 49 c51 53 69 82 69 111 0 48
-30 63 -313 157 -256 85 -278 91 -306 79 -59 -25 -59 -33 5 -371 53 -282 61
-310 85 -335 41 -42 71 -37 134 22 l53 51 68 -60 c38 -33 114 -87 169 -120
465 -281 1021 -259 1465 57 93 66 232 203 307 302 75 100 181 310 217 430 66
222 85 522 37 581 -12 15 -43 26 -106 39 -114 24 -137 24 -166 1z"/>
</g>
</svg>
