<?xml version="1.0" standalone="no"?>
<!DOCTYPE svg PUBLIC "-//W3C//DTD SVG 20010904//EN"
 "http://www.w3.org/TR/2001/REC-SVG-20010904/DTD/svg10.dtd">
<svg version="1.0" xmlns="http://www.w3.org/2000/svg"
 width="750.000000pt" height="634.000000pt" viewBox="0 0 750.000000 634.000000"
 preserveAspectRatio="xMidYMid meet">

<g transform="translate(0.000000,634.000000) scale(0.100000,-0.100000)"
fill="#000000" stroke="none">
<path d="M2300 4670 c-19 -19 -20 -33 -20 -454 0 -412 1 -435 19 -457 l19 -24
421 0 420 0 23 23 23 23 3 402 c2 221 0 417 -3 435 -3 18 -15 42 -26 53 -18
18 -36 19 -439 19 -407 0 -421 -1 -440 -20z m750 -460 l0 -320 -310 0 -310 0
0 320 0 320 310 0 310 0 0 -320z"/>
<path d="M2621 4341 c-31 -29 -31 -31 -31 -125 0 -91 1 -97 29 -128 24 -27 36
-32 89 -36 83 -6 125 3 156 35 25 24 26 31 26 125 0 97 -1 100 -29 129 -28 28
-33 29 -119 29 -85 0 -91 -1 -121 -29z"/>
<path d="M3389 4671 l-24 -19 -3 -430 -3 -430 25 -29 24 -28 286 -3 286 -3 0
-198 c0 -205 7 -253 40 -271 24 -13 366 -13 389 0 31 16 46 65 31 101 -18 42
-43 49 -181 49 l-119 0 0 205 c0 214 -7 254 -45 269 -9 3 -142 6 -296 6 l-279
0 0 359 c0 369 -4 412 -40 431 -29 16 -66 12 -91 -9z"/>
<path d="M4022 4683 c-35 -14 -42 -58 -42 -268 l0 -205 -129 0 c-111 0 -132
-3 -152 -19 -31 -25 -32 -83 -1 -114 21 -21 32 -22 202 -25 l180 -3 31 30 30
30 -3 272 -3 271 -24 19 c-22 18 -61 23 -89 12z"/>
<path d="M4321 4671 c-11 -11 -23 -35 -26 -53 -3 -18 -5 -214 -3 -435 l3 -402
23 -23 23 -23 420 0 421 0 19 24 c18 22 19 45 19 455 0 421 -1 433 -20 454
-21 22 -22 22 -440 22 -403 0 -421 -1 -439 -19z m749 -461 l0 -320 -310 0
-310 0 0 320 0 320 310 0 310 0 0 -320z"/>
<path d="M4631 4351 c-26 -26 -34 -76 -29 -173 4 -73 8 -84 32 -105 24 -21 37
-23 127 -23 93 0 102 2 124 25 24 23 25 30 25 138 0 106 -2 115 -23 135 -21
20 -34 22 -130 22 -93 0 -110 -3 -126 -19z"/>
<path d="M2306 3389 c-20 -16 -26 -29 -26 -59 0 -30 6 -43 26 -59 26 -20 37
-21 433 -21 357 0 409 2 429 16 32 22 44 58 31 91 -20 53 -13 52 -455 53 -401
0 -412 -1 -438 -21z"/>
<path d="M3402 3403 c-21 -8 -44 -63 -38 -89 4 -13 16 -33 28 -44 20 -19 35
-20 203 -20 168 0 183 1 203 20 12 11 24 31 28 44 7 28 -18 81 -41 90 -20 7
-364 7 -383 -1z"/>
<path d="M4632 3390 c-35 -33 -33 -84 4 -117 25 -23 30 -23 278 -23 241 0 255
1 280 21 20 16 26 29 26 59 0 30 -6 43 -26 59 -25 20 -39 21 -283 21 -245 0
-258 -1 -279 -20z"/>
<path d="M2306 3069 c-20 -16 -26 -29 -26 -59 0 -44 35 -80 77 -80 34 0 73 42
73 80 0 38 -39 80 -73 80 -13 0 -36 -9 -51 -21z"/>
<path d="M2615 3065 c-16 -15 -25 -36 -25 -55 0 -19 9 -40 25 -55 l24 -25 516
0 515 0 0 -207 c0 -225 5 -251 51 -267 39 -13 77 0 94 34 12 24 15 74 15 273
0 263 -6 302 -47 318 -14 5 -264 9 -584 9 l-560 0 -24 -25z"/>
<path d="M4022 3074 c-66 -46 -33 -145 46 -144 69 2 90 120 26 149 -33 15 -45
14 -72 -5z"/>
<path d="M4326 3069 c-37 -29 -37 -89 0 -118 26 -20 37 -21 436 -21 l409 0 24
25 c16 15 25 36 25 55 0 19 -9 40 -25 55 l-24 25 -409 0 c-399 0 -410 -1 -436
-21z"/>
<path d="M4027 2763 c-45 -12 -47 -35 -47 -507 l0 -444 -131 -4 c-130 -3 -131
-3 -156 -32 -19 -23 -24 -36 -19 -60 12 -61 28 -66 226 -66 98 0 186 3 195 6
43 17 45 37 45 547 0 312 -4 495 -10 514 -15 41 -54 59 -103 46z"/>
<path d="M2306 2589 l-26 -20 0 -440 c0 -426 1 -440 20 -459 19 -19 33 -20
440 -20 403 0 421 1 439 19 11 11 23 35 26 53 3 18 5 215 3 436 l-3 404 -28
24 -28 24 -408 0 c-398 0 -409 -1 -435 -21z m744 -459 l0 -320 -310 0 -310 0
0 320 0 320 310 0 310 0 0 -320z"/>
<path d="M2654 2280 c-12 -4 -31 -21 -43 -36 -18 -23 -21 -40 -21 -121 0 -93
1 -95 31 -124 30 -28 36 -29 121 -29 86 0 91 1 119 29 28 29 29 32 29 128 0
108 -11 132 -67 154 -30 11 -140 11 -169 -1z"/>
<path d="M4333 2598 c-12 -6 -27 -24 -32 -41 -15 -42 -15 -813 0 -856 6 -17
19 -36 29 -41 11 -6 182 -10 434 -10 414 0 415 0 436 22 19 21 20 33 20 459
l0 438 -26 20 c-26 20 -37 21 -433 20 -264 0 -414 -4 -428 -11z m737 -468 l0
-320 -310 0 -310 0 0 320 0 320 310 0 310 0 0 -320z"/>
<path d="M4634 2267 c-24 -21 -28 -32 -32 -105 -5 -97 3 -147 29 -173 16 -16
33 -19 127 -19 100 0 110 2 130 23 20 21 22 34 22 136 0 106 -1 113 -25 136
-22 23 -31 25 -124 25 -90 0 -103 -2 -127 -23z"/>
<path d="M3414 2280 c-51 -20 -54 -35 -54 -310 0 -275 4 -297 51 -314 39 -13
77 0 94 34 12 23 15 70 15 235 l0 205 126 0 c69 0 133 4 143 10 10 5 24 23 31
39 15 37 -2 79 -40 98 -29 15 -331 17 -366 3z"/>
</g>
</svg>
