<svg id="twin24" xmlns="http://www.w3.org/2000/svg" width="24" height="24" viewBox="0 0 24 24">
  <path id="Trazado_468" data-name="Trazado 468" d="M12,0A12,12,0,1,0,24,12,12.012,12.012,0,0,0,12,0Zm6.445,18.323a8.944,8.944,0,1,1,1.938-9.748A8.883,8.883,0,0,1,18.444,18.323Z" fill="#000000"/>
  <path id="Trazado_469" data-name="Trazado 469" d="M200.917,181.934v-1.568h1.353v-1.476h-1.323V177.63l-1.753.245v1.045H198.18V180.4h.991l.023,1.875a1.912,1.912,0,0,0,1.115,1.794,3.824,3.824,0,0,0,2.545-.288l-.8-1.629C201.009,182.765,200.917,181.934,200.917,181.934Z" transform="translate(-188.453 -168.912)" fill="#000000"/>
  <path id="Trazado_470" data-name="Trazado 470" d="M130.8,128.828c.012-.019.022-.038.034-.057.038-.062.075-.125.111-.189,0,0,0-.009.007-.013a6.135,6.135,0,1,0-5.364,3.159h0l.168,0a6.106,6.106,0,0,0,2.347-.536c.067-.028.133-.057.2-.087a6.6,6.6,0,0,0,2.274.4,4.918,4.918,0,0,0,.562-.028.472.472,0,0,0,.214-.852,4.8,4.8,0,0,1-.7-1.563l.012-.02C130.707,128.968,130.752,128.9,130.8,128.828Zm-.531-.993c-.044.093-.092.183-.141.272l-.03.054q-.058.1-.12.2c-.07.109-.142.217-.22.322a.473.473,0,0,0-.078.4,9.309,9.309,0,0,0,.526,1.461,5.464,5.464,0,0,1-1.742-.393.469.469,0,0,0-.393.014,6.057,6.057,0,0,1-2.18.608c-.1.006-.2.01-.3.01a5.192,5.192,0,1,1,4.682-2.95Z" transform="translate(-113.585 -113.595)" fill="#000000"/>
</svg>
